<svg height="512pt" viewBox="0 0 512 512" width="512pt" xmlns="http://www.w3.org/2000/svg" xmlns:xlink="http://www.w3.org/1999/xlink"><linearGradient id="a"><stop offset="0" stop-color="#fffcf8"/><stop offset=".1875" stop-color="#faf8f6"/><stop offset=".4041" stop-color="#eceef2"/><stop offset=".6353" stop-color="#d5dcea"/><stop offset=".875" stop-color="#b5c4df"/><stop offset="1" stop-color="#a1b5d8"/></linearGradient><linearGradient id="b" gradientUnits="userSpaceOnUse" x1="166.3813985508" x2="519.4574530082" xlink:href="#a" y1="166.3813985508" y2="519.4574530082"/><linearGradient id="c"><stop offset="0" stop-color="#a1b5d8" stop-opacity="0"/><stop offset=".0343" stop-color="#9fb3d5" stop-opacity=".035294"/><stop offset=".4515" stop-color="#8898af" stop-opacity=".45098"/><stop offset=".788" stop-color="#798898" stop-opacity=".788235"/><stop offset="1" stop-color="#748290"/></linearGradient><linearGradient id="d" gradientUnits="userSpaceOnUse" x1="256.00011" x2="256.00011" xlink:href="#c" y1="473.9177440286" y2="537.1617178704"/><linearGradient id="e" gradientUnits="userSpaceOnUse" x1="256.00011" x2="256.00011" y1="59.42214318" y2="130.7958773778"><stop offset="0" stop-color="#3b395f"/><stop offset=".0633" stop-color="#37355a"/><stop offset=".4033" stop-color="#232543"/><stop offset=".7232" stop-color="#171b35"/><stop offset="1" stop-color="#131830"/></linearGradient><linearGradient id="f" gradientUnits="userSpaceOnUse" x1="256.00011" x2="256.00011" xlink:href="#a" y1="115.2174173506" y2="127.4030225866"/><radialGradient id="g" cx="351.9217449418" cy="51.200022" gradientUnits="userSpaceOnUse" r="16.4097074432"><stop offset="0" stop-color="#00e7b2"/><stop offset=".3524" stop-color="#03e6b1"/><stop offset=".5753" stop-color="#0be1af"/><stop offset=".7622" stop-color="#1adaaa"/><stop offset=".9283" stop-color="#2fcfa4"/><stop offset="1" stop-color="#3ac9a0"/></radialGradient><radialGradient id="h" cx="398.2224267974" cy="38.149036" gradientUnits="userSpaceOnUse" r="28.9575277368"><stop offset="0" stop-color="#ffc738"/><stop offset=".4873" stop-color="#ffc636"/><stop offset=".6746" stop-color="#ffc22f"/><stop offset=".8103" stop-color="#ffbb23"/><stop offset=".9203" stop-color="#ffb112"/><stop offset="1" stop-color="#ffa700"/></radialGradient><linearGradient id="i"><stop offset="0" stop-color="#ff4974"/><stop offset=".3262" stop-color="#fe4672"/><stop offset=".5324" stop-color="#fb3e6c"/><stop offset=".7054" stop-color="#f52f60"/><stop offset=".8591" stop-color="#ee1a51"/><stop offset="1" stop-color="#e4003d"/></linearGradient><linearGradient id="j" gradientUnits="userSpaceOnUse" x1="448.8571403192" x2="462.9120483192" xlink:href="#i" y1="35.7740577246" y2="63.8838737246"/><linearGradient id="k" gradientUnits="userSpaceOnUse" x1="335.5592218326" x2="193.0022978326" xlink:href="#c" y1="425.6325091634" y2="52.1735251634"/><linearGradient id="l" gradientUnits="userSpaceOnUse" x1="185.8929237974" x2="320.4184717974" xlink:href="#i" y1="154.0003297014" y2="384.9023897014"/><linearGradient id="m"><stop offset="0" stop-color="#ffc738"/><stop offset=".4286" stop-color="#ffbb23"/><stop offset="1" stop-color="#ffa700"/></linearGradient><linearGradient id="n" gradientUnits="userSpaceOnUse" x1="160.5424878066" x2="160.5424878066" xlink:href="#m" y1="248.614757807" y2="371.241320302"/><linearGradient id="o" gradientUnits="userSpaceOnUse" x1="263.0234479198" x2="263.0234479198" xlink:href="#m" y1="248.614757807" y2="371.241320302"/><linearGradient id="p" gradientUnits="userSpaceOnUse" x1="359.9404715246" x2="359.9404715246" xlink:href="#m" y1="248.614757807" y2="371.241320302"/><path d="m467.445312 512h-422.890624c-24.609376 0-44.554688-19.945312-44.554688-44.554688v-422.890624c0-24.609376 19.945312-44.554688 44.554688-44.554688h422.890624c24.609376 0 44.554688 19.945312 44.554688 44.554688v422.890624c0 24.609376-19.945312 44.554688-44.554688 44.554688zm0 0" fill="url(#b)"/><path d="m0 421.261719v46.183593c0 24.609376 19.945312 44.554688 44.554688 44.554688h422.890624c24.609376 0 44.554688-19.945312 44.554688-44.554688v-46.183593zm0 0" fill="url(#d)"/><path d="m467.445312 0h-422.890624c-24.609376 0-44.554688 19.945312-44.554688 44.554688v57.84375h512v-57.84375c0-24.609376-19.945312-44.554688-44.554688-44.554688zm0 0" fill="url(#e)"/><path d="m0 115.21875h512v12.183594h-512zm0 0" fill="url(#f)"/><path d="m368.332031 51.199219c0 9.0625-7.347656 16.410156-16.410156 16.410156s-16.410156-7.347656-16.410156-16.410156 7.347656-16.410157 16.410156-16.410157 16.410156 7.347657 16.410156 16.410157zm0 0" fill="url(#g)"/><path d="m420.65625 51.199219c0 9.0625-7.347656 16.410156-16.410156 16.410156s-16.410156-7.347656-16.410156-16.410156 7.347656-16.410157 16.410156-16.410157 16.410156 7.347657 16.410156 16.410157zm0 0" fill="url(#h)"/><path d="m472.980469 51.199219c0 9.0625-7.347657 16.410156-16.410157 16.410156s-16.410156-7.347656-16.410156-16.410156 7.347656-16.410157 16.410156-16.410157 16.410157 7.347657 16.410157 16.410157zm0 0" fill="url(#j)"/><path d="m512 467.445312v-200.5625l-74.003906-74c-7.695313-9.640624-19.539063-15.820312-32.835938-15.820312h-298.320312c-23.203125 0-42.015625 18.808594-42.015625 42.011719v110.519531c0 13.292969 6.183593 25.136719 15.820312 32.835938l149.574219 149.570312h237.230469c24.605469 0 44.550781-19.945312 44.550781-44.554688zm0 0" fill="url(#k)"/><path d="m405.160156 371.605469h-298.320312c-23.203125 0-42.015625-18.808594-42.015625-42.015625v-110.515625c0-23.203125 18.808593-42.011719 42.015625-42.011719h298.320312c23.203125 0 42.015625 18.808594 42.015625 42.011719v110.519531c0 23.203125-18.808593 42.011719-42.015625 42.011719zm0 0" fill="url(#l)"/><path d="m111.464844 332.300781c0-.722656.0625-1.261719.183594-1.625l35.90625-117.191406c1.53125-4.335937 5.820312-6.503906 12.855468-6.503906 7.160156 0 11.507813 2.019531 13.046875 6.058593l35.800781 117.167969c.238282.761719.359376 1.328125.359376 1.707031 0 2.269532-1.40625 4.230469-4.214844 5.867188-2.808594 1.640625-5.789063 2.460938-8.933594 2.460938-3.808594 0-6.167969-1.308594-7.085938-3.933594l-7.488281-25.898438h-44.449219l-7.394531 25.828125c-.84375 2.671875-3.070312 4.003907-6.675781 4.003907-2.886719 0-5.59375-.777344-8.121094-2.34375-2.523437-1.566407-3.789062-3.433594-3.789062-5.597657zm30.332031-37.082031h35.894531l-18.128906-62.058594zm0 0" fill="url(#n)"/><path d="m222.429688 334.09375v-119.882812c0-1.6875.8125-3.132813 2.441406-4.339844 1.628906-1.203125 3.644531-1.808594 6.058594-1.808594h32.003906c12.292968 0 22.148437 3.257812 29.5625 9.765625 7.414062 6.507813 11.117187 16.695313 11.117187 30.558594v51.53125c0 13.863281-3.703125 24.046875-11.117187 30.558593-7.414063 6.507813-17.269532 9.761719-29.5625 9.761719h-32.003906c-2.414063 0-4.433594-.597656-6.058594-1.804687-1.628906-1.203125-2.441406-2.652344-2.441406-4.339844zm19.167968-10.847656h21.335938c14.34375 0 21.515625-7.777344 21.515625-23.328125v-51.53125c0-15.550781-7.171875-23.324219-21.515625-23.324219h-21.335938zm0 0" fill="url(#o)"/><path d="m319.347656 320.351562c0-2.289062.84375-4.578124 2.53125-6.871093 1.6875-2.289063 3.617188-3.4375 5.785156-3.4375 1.324219 0 2.921876.777343 4.792969 2.320312 1.867188 1.546875 3.707031 3.214844 5.515625 5.003907 1.804688 1.792968 4.546875 3.460937 8.226563 5.007812 3.675781 1.542969 7.804687 2.316406 12.386719 2.316406 6.871093 0 12.386718-1.636718 16.542968-4.910156 4.160156-3.269531 6.238282-8.058594 6.238282-14.359375 0-5.816406-2.019532-10.664063-6.054688-14.542969-4.039062-3.875-8.921875-6.96875-14.648438-9.273437-5.722656-2.300781-11.480468-4.785157-17.265624-7.453125-5.785157-2.667969-10.699219-6.664063-14.738282-11.996094-4.039062-5.332031-6.054687-12-6.054687-20 0-6.371094 1.234375-11.902344 3.707031-16.59375 2.46875-4.691406 5.8125-8.296875 10.035156-10.824219 4.21875-2.527343 8.648438-4.359375 13.289063-5.5s9.550781-1.714843 14.738281-1.714843c3.253906 0 6.65625.210937 10.214844.625 3.554687.421874 7.078125 1.105468 10.578125 2.058593 3.496093.953125 6.386719 2.324219 8.679687 4.113281 2.289063 1.789063 3.433594 3.816407 3.433594 6.078126 0 2.265624-.722656 4.550781-2.167969 6.851562-1.445312 2.304688-3.378906 3.453125-5.785156 3.453125-1.207031 0-2.835937-.574219-4.882813-1.726563-2.050781-1.152343-4.792968-2.300781-8.226562-3.453124-3.4375-1.152344-7.386719-1.726563-11.84375-1.726563-6.871094 0-12.359375 1.367187-16.453125 4.089844-4.101563 2.730469-6.148437 6.878906-6.148437 12.457031 0 3.632812 1.082031 6.753906 3.253906 9.359375 2.167968 2.605469 4.972656 4.757813 8.40625 6.453125 3.4375 1.699219 7.261718 3.367188 11.484375 5 4.21875 1.636719 8.40625 3.542969 12.566406 5.726562 4.15625 2.179688 7.953125 4.695313 11.390625 7.546876 3.433594 2.84375 6.238281 6.753906 8.40625 11.722656 2.171875 4.96875 3.257812 10.726562 3.257812 17.269531 0 12.457031-3.769531 21.949219-11.300781 28.476563-7.539062 6.527343-17.511719 9.789062-29.925781 9.789062-11.09375 0-20.523438-2.320312-28.296875-6.960938-7.78125-4.640624-11.667969-9.429687-11.667969-14.375zm0 0" fill="url(#p)"/></svg>