<svg id="Capa_1" enable-background="new 0 0 510 510" height="512" viewBox="0 0 510 510" width="512" xmlns="http://www.w3.org/2000/svg" xmlns:xlink="http://www.w3.org/1999/xlink"><linearGradient id="SVGID_1_" gradientUnits="userSpaceOnUse" x1="183.415" x2="342.724" y1="159.277" y2="318.586"><stop offset="0" stop-color="#ffebb4"/><stop offset="1" stop-color="#ffce47"/></linearGradient><linearGradient id="lg1"><stop offset="0" stop-color="#ff9356" stop-opacity="0"/><stop offset="1" stop-color="#ff755c"/></linearGradient><linearGradient id="SVGID_2_" gradientUnits="userSpaceOnUse" x1="254.999" x2="254.999" xlink:href="#lg1" y1="331" y2="409"/><linearGradient id="SVGID_3_" gradientUnits="userSpaceOnUse" x1="270.608" x2="194.973" y1="246.883" y2="94.518"><stop offset="0" stop-color="#ffebb4" stop-opacity="0"/><stop offset="1" stop-color="#fff5d9"/></linearGradient><linearGradient id="SVGID_4_" gradientUnits="userSpaceOnUse" x1="372.443" x2="356.443" xlink:href="#lg1" y1="216.042" y2="162.042"/><linearGradient id="SVGID_5_" gradientUnits="userSpaceOnUse" x1="189.745" x2="47.745" xlink:href="#lg1" y1="278.502" y2="162.502"/><linearGradient id="SVGID_6_" gradientUnits="userSpaceOnUse" x1="413.506" x2="343.409" xlink:href="#lg1" y1="354.188" y2="284.091"/><linearGradient id="SVGID_7_" gradientUnits="userSpaceOnUse" x1="225.219" x2="301.169" y1="387.068" y2="490.529"><stop offset="0" stop-color="#45a2e0"/><stop offset="1" stop-color="#2f73a0"/></linearGradient><linearGradient id="lg2"><stop offset="0" stop-color="#c7e9ff"/><stop offset="1" stop-color="#7acbff"/></linearGradient><linearGradient id="SVGID_8_" gradientUnits="userSpaceOnUse" x1="255" x2="255" xlink:href="#lg2" y1="393.335" y2="423.427"/><linearGradient id="SVGID_9_" gradientUnits="userSpaceOnUse" x1="255" x2="255" xlink:href="#lg2" y1="439.384" y2="469.476"/><linearGradient id="SVGID_10_" gradientUnits="userSpaceOnUse" x1="341.982" x2="459.466" y1="36.228" y2="153.712"><stop offset="0" stop-color="#ff755c"/><stop offset="1" stop-color="#ff4181"/></linearGradient><linearGradient id="SVGID_11_" gradientUnits="userSpaceOnUse" x1="395.459" x2="395.459" y1="112" y2="212"><stop offset="0" stop-color="#843561" stop-opacity="0"/><stop offset="1" stop-color="#3a2f4d"/></linearGradient><linearGradient id="SVGID_12_" gradientUnits="userSpaceOnUse" x1="58.619" x2="139.795" y1="142.724" y2="223.901"><stop offset="0" stop-color="#7acbff"/><stop offset="1" stop-color="#45a2e0"/></linearGradient><linearGradient id="SVGID_13_" gradientUnits="userSpaceOnUse" x1="90.903" x2="90.903" y1="198" y2="268"><stop offset="0" stop-color="#174461" stop-opacity="0"/><stop offset="1" stop-color="#174461"/></linearGradient><linearGradient id="SVGID_14_" gradientUnits="userSpaceOnUse" x1="291.934" x2="415.263" y1="232.066" y2="355.395"><stop offset="0" stop-color="#e4e08e"/><stop offset="1" stop-color="#6fa953"/></linearGradient><linearGradient id="SVGID_15_" gradientUnits="userSpaceOnUse" x1="346.502" x2="346.502" y1="295.5" y2="365.016"><stop offset="0" stop-color="#43765a" stop-opacity="0"/><stop offset="1" stop-color="#43765a"/></linearGradient><g><g><g><path d="m419.697 213.169c0-91.066-73.909-164.869-165.015-164.697-90.88.172-164.905 74.797-164.376 165.676.305 52.392 25.074 98.987 63.461 128.941 10.013 7.814 15.878 19.795 15.878 32.497 0 27.375 22.192 49.566 49.566 49.566h71.577c27.375 0 49.566-22.191 49.566-49.566v-.003c0-12.69 5.849-24.671 15.855-32.475 38.641-30.14 63.488-77.138 63.488-129.939z" fill="url(#SVGID_1_)"/><path d="m117.608 304c9.874 14.905 22.098 28.117 36.159 39.089 10.013 7.814 15.878 19.795 15.878 32.497 0 27.375 22.192 49.566 49.566 49.566h71.577c27.375 0 49.566-22.192 49.566-49.566v-.003c0-12.69 5.849-24.671 15.855-32.475 14.071-10.975 26.301-24.195 36.18-39.107h-274.781z" fill="url(#SVGID_2_)"/><circle cx="255" cy="215.441" fill="url(#SVGID_3_)" r="151.201"/><path d="m285.665 52.962c-5.383 27.706-2.836 53.523 7.653 81.12 1.498 3.941 2.16 5.419 5.633 8.201 11.549 5.883 12.475 15.683 12.475 18.279v12.749c0 3.115-.014 5.397 2.475 6.264l94.261 94.262c7.443-18.775 11.535-39.243 11.535-60.667 0-81.183-56.737-146.643-134.032-160.208z" fill="url(#SVGID_4_)"/><path d="m372.41 328.67c-5.07 5.16-10.49 9.98-16.2 14.44-10.01 7.8-15.86 19.78-15.86 32.47v.01c0 27.37-22.19 49.56-49.56 49.56h-71.58c-13.69 0-26.07-5.55-35.04-14.52s-14.52-21.35-14.52-35.04c0-12.71-5.87-24.69-15.88-32.5-32.69-25.51-55.51-63.09-61.74-106.04-1.09-7.48-1.68-15.13-1.72-22.9-.22-37.51 12.26-72.25 33.39-100.13.07-.09.15-.18.22-.28 10.88 1.03 21.74 2.57 32.57 4.63 6.68 1.27 12.24 4.88 15.39 9.77z" fill="url(#SVGID_5_)"/><path d="m419.323 224.156c-2.194-1.15-4.622-1.023-7.236-1.519-43.557-8.261-85.614-8.261-129.17 0-8.105 1.537-14.579 5.523-17.065 12.063-11.004 28.951-11.002 58.204 0 87.151 1.2 3.158 3.342 5.942 6.138 8.161.981 1.248 5.508 5.773 6.773 6.785.939 1.854 1.46 3.919 1.46 6.069v10.118c0 2.515-.369 4.346 1.653 5.005l48.024 48.024c6.545-8.4 10.454-18.955 10.454-30.429v-.003c0-12.69 5.849-24.67 15.855-32.475 35.938-28.03 59.932-70.647 63.114-118.95z" fill="url(#SVGID_6_)"/></g></g><g><path d="m255 510c-47.14 0-85.355-38.215-85.355-85.355v-21.993h170.71v21.993c0 47.14-38.215 85.355-85.355 85.355z" fill="url(#SVGID_7_)"/><path d="m163.499 394.633v18.939c0 4.333 4.488 8.024 10.626 8.771 23.822 2.897 51.433 4.554 80.875 4.554 29.443 0 57.053-1.657 80.875-4.554 6.138-.746 10.626-4.438 10.626-8.771v-18.939c0-5.482-7.055-9.664-14.836-8.781-22.841 2.592-48.937 4.064-76.666 4.064s-53.824-1.472-76.666-4.064c-7.779-.883-14.834 3.299-14.834 8.781z" fill="url(#SVGID_8_)"/><path d="m163.499 440.682v18.939c0 4.333 4.488 8.024 10.626 8.771 23.822 2.897 51.433 4.554 80.875 4.554 29.443 0 57.053-1.657 80.875-4.554 6.138-.746 10.626-4.438 10.626-8.771v-18.939c0-5.482-7.055-9.664-14.836-8.781-22.841 2.592-48.937 4.064-76.666 4.064s-53.824-1.472-76.666-4.064c-7.779-.883-14.834 3.299-14.834 8.781z" fill="url(#SVGID_9_)"/></g><g><path d="m499.602 24.268c-3.132-8.241-11.29-14.524-21.502-16.461-54.883-10.41-110.399-10.41-165.281 0-10.212 1.937-18.37 8.22-21.502 16.461-13.865 36.479-13.863 73.339 0 109.814 1.829 4.813 5.374 8.955 10.041 11.954 4.972 3.195 8.066 8.616 8.066 14.526v12.749c0 5.919 7.156 8.883 11.341 4.698l16.161-16.161c4.122-4.122 9.875-6.161 15.677-5.593 41.827 4.091 83.844 2.188 125.496-5.712 10.212-1.937 18.37-8.22 21.502-16.461 13.864-36.475 13.866-73.335.001-109.814z" fill="url(#SVGID_10_)"/><g><g><g fill="#843561"><path d="m370.833 59.933h-37.593c-2.755 0-4.988-2.233-4.988-4.988v-9.976c0-2.755 2.233-4.988 4.988-4.988h37.593c2.755 0 4.988 2.233 4.988 4.988v9.976c0 2.754-2.233 4.988-4.988 4.988z"/><path d="m457.679 59.933h-65.632c-2.755 0-4.988-2.233-4.988-4.988v-9.976c0-2.755 2.233-4.988 4.988-4.988h65.632c2.755 0 4.988 2.233 4.988 4.988v9.976c0 2.754-2.234 4.988-4.988 4.988z"/></g><g fill="#843561"><path d="m420.086 89.984h37.593c2.755 0 4.988-2.233 4.988-4.988v-9.976c0-2.755-2.233-4.988-4.988-4.988h-37.593c-2.755 0-4.988 2.233-4.988 4.988v9.976c-.001 2.755 2.233 4.988 4.988 4.988z"/><path d="m333.24 89.984h65.632c2.755 0 4.988-2.233 4.988-4.988v-9.976c0-2.755-2.233-4.988-4.988-4.988h-65.632c-2.755 0-4.988 2.233-4.988 4.988v9.976c0 2.755 2.233 4.988 4.988 4.988z"/></g><g><path d="m370.833 120.035h-37.593c-2.755 0-4.988-2.233-4.988-4.988v-9.976c0-2.755 2.233-4.988 4.988-4.988h37.593c2.755 0 4.988 2.233 4.988 4.988v9.976c0 2.755-2.233 4.988-4.988 4.988z" fill="#843561"/></g></g></g><path d="m281.802 95.119c1.427 13.013 4.593 26.012 9.515 38.963 1.829 4.813 5.374 8.955 10.041 11.954 4.972 3.195 8.066 8.616 8.066 14.526v12.749c0 5.919 7.156 8.883 11.341 4.698l16.161-16.161c4.122-4.122 9.875-6.161 15.677-5.593 41.827 4.091 83.844 2.188 125.496-5.712 10.212-1.937 18.37-8.22 21.502-16.461 4.922-12.951 8.088-25.95 9.515-38.963z" fill="url(#SVGID_11_)"/></g><g><path d="m8.252 131.432c2.486-6.54 8.96-11.526 17.065-13.064 43.557-8.261 87.615-8.261 131.171 0 8.105 1.537 14.579 6.524 17.065 13.064 11.004 28.951 11.002 58.204 0 87.151-1.452 3.819-4.265 7.107-7.969 9.487-3.946 2.536-6.402 6.838-6.402 11.528v10.118c0 4.697-5.679 7.05-9.001 3.728l-12.826-12.826c-3.271-3.271-7.837-4.889-12.442-4.439-33.195 3.247-66.541 1.737-99.597-4.533-8.105-1.537-14.579-6.524-17.065-13.064-11.001-28.946-11.002-58.199.001-87.15z" fill="url(#SVGID_12_)"/><g><g><g fill="#2f73a0"><path d="m66.276 168.561h-37.593c-2.755 0-4.988-2.233-4.988-4.988v-9.976c0-2.755 2.233-4.988 4.988-4.988h37.593c2.755 0 4.988 2.233 4.988 4.988v9.976c.001 2.754-2.233 4.988-4.988 4.988z"/><path d="m153.122 168.561h-65.632c-2.755 0-4.988-2.233-4.988-4.988v-9.976c0-2.755 2.233-4.988 4.988-4.988h65.632c2.755 0 4.988 2.233 4.988 4.988v9.976c0 2.754-2.233 4.988-4.988 4.988z"/></g><g><path d="m28.683 198.612h65.632c2.755 0 4.988-2.233 4.988-4.988v-9.976c0-2.755-2.233-4.988-4.988-4.988h-65.632c-2.755 0-4.988 2.233-4.988 4.988v9.976c0 2.755 2.234 4.988 4.988 4.988z" fill="#2f73a0"/></g></g></g><path d="m.323 183.586c.869 11.689 3.509 23.368 7.93 34.997 2.486 6.54 8.96 11.526 17.065 13.064 33.056 6.27 66.402 7.78 99.597 4.533 4.605-.45 9.17 1.167 12.442 4.439l12.826 12.826c3.321 3.321 9 .969 9-3.728v-10.118c0-4.69 2.456-8.992 6.402-11.528 3.704-2.38 6.517-5.668 7.969-9.487 4.42-11.63 7.061-23.309 7.93-34.997h-181.161z" fill="url(#SVGID_13_)"/></g><g><path d="m429.152 234.7c-2.486-6.54-8.96-11.526-17.065-13.064-43.556-8.261-87.615-8.261-131.171 0-8.105 1.537-14.579 6.524-17.065 13.064-11.004 28.951-11.002 58.204 0 87.151 1.452 3.819 4.265 7.107 7.969 9.487 3.946 2.536 6.402 6.838 6.402 11.528v10.118c0 4.697 5.679 7.05 9 3.728l12.826-12.826c3.271-3.272 7.837-4.889 12.442-4.439 33.195 3.247 66.541 1.737 99.597-4.533 8.105-1.537 14.579-6.524 17.065-13.064 11.002-28.946 11.003-58.199 0-87.15z" fill="url(#SVGID_14_)"/><g><g><g fill="#43765a"><path d="m371.128 271.829h37.593c2.755 0 4.988-2.233 4.988-4.988v-9.976c0-2.755-2.233-4.988-4.988-4.988h-37.593c-2.755 0-4.988 2.233-4.988 4.988v9.976c0 2.754 2.233 4.988 4.988 4.988z"/><path d="m284.282 271.829h65.632c2.755 0 4.988-2.233 4.988-4.988v-9.976c0-2.755-2.233-4.988-4.988-4.988h-65.632c-2.755 0-4.988 2.233-4.988 4.988v9.976c0 2.754 2.233 4.988 4.988 4.988z"/></g><g><path d="m321.875 301.88h-37.593c-2.755 0-4.988-2.233-4.988-4.988v-9.976c0-2.755 2.233-4.988 4.988-4.988h37.593c2.755 0 4.988 2.233 4.988 4.988v9.976c0 2.755-2.233 4.988-4.988 4.988z" fill="#43765a"/></g></g></g><path d="m255.922 286.854c.869 11.689 3.509 23.368 7.93 34.997 1.452 3.819 4.265 7.107 7.969 9.487 3.946 2.536 6.402 6.838 6.402 11.528v10.118c0 4.697 5.679 7.05 9 3.728l12.826-12.826c3.272-3.271 7.837-4.889 12.442-4.439 33.195 3.247 66.541 1.737 99.597-4.533 8.105-1.537 14.579-6.524 17.065-13.064 4.42-11.63 7.061-23.309 7.929-34.997h-181.16z" fill="url(#SVGID_15_)"/></g></g></svg>