<?xml version="1.0" encoding="utf-8"?>
<!-- Generator: Adobe Illustrator 26.1.0, SVG Export Plug-In . SVG Version: 6.00 Build 0)  -->
<svg version="1.1" id="Capa_1" xmlns="http://www.w3.org/2000/svg" xmlns:xlink="http://www.w3.org/1999/xlink" x="0px" y="0px"
	 viewBox="0 0 425 369.4" style="enable-background:new 0 0 425 369.4;" xml:space="preserve">
<style type="text/css">
	.st0{fill:url(#SVGID_1_);}
	.st1{fill:url(#SVGID_00000124842891214186354730000002415140857164984237_);}
	.st2{fill:url(#SVGID_00000069360700669146070520000013256017106530584216_);}
	.st3{fill:url(#SVGID_00000123434115608772150390000009179595207970922892_);}
	.st4{fill:url(#SVGID_00000041261074218898737890000003738621849932106933_);}
	.st5{fill:url(#SVGID_00000171687462746095879810000003485816486239569596_);}
	.st6{fill:url(#SVGID_00000119802290689037084890000013631154588482432183_);}
	.st7{fill:url(#SVGID_00000039133228599578112410000001887758858605378452_);}
	.st8{fill:url(#SVGID_00000142173190188961769860000010971575484899695037_);}
	.st9{fill:url(#SVGID_00000027568206172327935740000003293380544169445769_);}
</style>
<g>
	
		<linearGradient id="SVGID_1_" gradientUnits="userSpaceOnUse" x1="77.7991" y1="466.2538" x2="283.9541" y2="260.0978" gradientTransform="matrix(1.0039 0 0 -1.0039 1.3699 519.7814)">
		<stop  offset="0" style="stop-color:#EAF9FA"/>
		<stop  offset="1" style="stop-color:#B3DAFE"/>
	</linearGradient>
	<path class="st0" d="M425,341.5V27.9C425,12.5,412.5,0,397,0H27.9C12.5,0,0,12.5,0,27.9v313.6c0,15.4,12.5,27.9,27.9,27.9H397
		C412.5,369.4,425,356.9,425,341.5L425,341.5z"/>
	<g>
		
			<linearGradient id="SVGID_00000165938840185231123390000010732139971626010025_" gradientUnits="userSpaceOnUse" x1="-36.421" y1="472.0655" x2="257.953" y2="120.3146" gradientTransform="matrix(1.0039 0 0 -1.0039 1.3699 519.7814)">
			<stop  offset="0" style="stop-color:#B3DAFE"/>
			<stop  offset="1" style="stop-color:#0182FC"/>
		</linearGradient>
		<path style="fill:url(#SVGID_00000165938840185231123390000010732139971626010025_);" d="M135.8,169.1c0-11.2-10.3-19.9-18.5-19.9
			c-1.9,0-3.8,0.3-5.2,1.4L43,195.5c-6.3,4.1-8.4,10.6-8.4,15.2s2.2,11.2,8.4,15.2l69.2,44.9c1.4,1.1,3.3,1.4,5.2,1.4
			c8.2,0,18.5-8.7,18.5-19.9c0-4.6-1.9-8.7-4.9-10.6l-47.9-31l47.9-31C133.9,177.8,135.8,173.7,135.8,169.1z"/>
		
			<linearGradient id="SVGID_00000075155950183630866050000003940176698025350792_" gradientUnits="userSpaceOnUse" x1="39.2858" y1="535.4225" x2="333.6599" y2="183.6716" gradientTransform="matrix(1.0039 0 0 -1.0039 1.3699 519.7814)">
			<stop  offset="0" style="stop-color:#B3DAFE"/>
			<stop  offset="1" style="stop-color:#0182FC"/>
		</linearGradient>
		<path style="fill:url(#SVGID_00000075155950183630866050000003940176698025350792_);" d="M258.6,76c-4.9,0-9.3,2.2-11.4,6.8
			l-95.6,196.3c-0.8,1.6-1.4,3.5-1.4,5.2c0,6.8,6,14.4,15.2,14.4c5.2,0,10.3-2.7,12.3-6.8l95.9-196.3c0.8-1.6,1.1-3.5,1.1-5.2
			C274.7,81.7,266.3,76,258.6,76z"/>
		
			<linearGradient id="SVGID_00000110431542342226087690000011838492663907796137_" gradientUnits="userSpaceOnUse" x1="92.1021" y1="579.6238" x2="386.4751" y2="227.8718" gradientTransform="matrix(1.0039 0 0 -1.0039 1.3699 519.7814)">
			<stop  offset="0" style="stop-color:#B3DAFE"/>
			<stop  offset="1" style="stop-color:#0182FC"/>
		</linearGradient>
		<path style="fill:url(#SVGID_00000110431542342226087690000011838492663907796137_);" d="M382,195.5l-69.2-44.9
			c-1.4-1.1-3.3-1.4-5.2-1.4c-8.2,0-18.5,8.7-18.5,19.9c0,4.6,1.9,8.7,4.9,10.6l47.9,31l-47.9,31c-3,1.9-4.9,6-4.9,10.6
			c0,11.2,10.3,19.9,18.5,19.9c1.9,0,3.8-0.3,5.2-1.4L382,226c6.3-4.1,8.4-10.6,8.4-15.2C390.5,206.1,388.3,199.6,382,195.5
			L382,195.5z"/>
	</g>
	
		<linearGradient id="SVGID_00000014594209999027686160000008661858548309970841_" gradientUnits="userSpaceOnUse" x1="189.9499" y1="543.6879" x2="234.9479" y2="396.6949" gradientTransform="matrix(1.0039 0 0 -1.0039 1.3699 519.7814)">
		<stop  offset="0" style="stop-color:#B3DAFE"/>
		<stop  offset="1" style="stop-color:#0182FC"/>
	</linearGradient>
	<path style="fill:url(#SVGID_00000014594209999027686160000008661858548309970841_);" d="M397,0H27.9C12.5,0,0,12.5,0,27.9v29.7
		h425V27.9C425,12.5,412.5,0,397,0z"/>
	
		<linearGradient id="SVGID_00000015334822934269849490000018091639125185039544_" gradientUnits="userSpaceOnUse" x1="365.9064" y1="333.757" x2="457.4014" y2="333.757" gradientTransform="matrix(1.0039 0 0 -1.0039 1.3699 519.7814)">
		<stop  offset="0" style="stop-color:#0182FC;stop-opacity:0"/>
		<stop  offset="0.1256" style="stop-color:#017FF3;stop-opacity:0.126"/>
		<stop  offset="0.3249" style="stop-color:#0177DC;stop-opacity:0.325"/>
		<stop  offset="0.5727" style="stop-color:#0269B7;stop-opacity:0.573"/>
		<stop  offset="0.8569" style="stop-color:#025684;stop-opacity:0.857"/>
		<stop  offset="1" style="stop-color:#024C67"/>
	</linearGradient>
	<path style="fill:url(#SVGID_00000015334822934269849490000018091639125185039544_);" d="M397,0h-75v369.4h75
		c15.4,0,27.9-12.5,27.9-27.9V27.9C425,12.5,412.5,0,397,0L397,0z"/>
	
		<linearGradient id="SVGID_00000135676826783167932690000012183148889874750090_" gradientUnits="userSpaceOnUse" x1="40.3224" y1="500.9371" x2="49.3994" y2="471.2851" gradientTransform="matrix(1.0039 0 0 -1.0039 1.3699 519.7814)">
		<stop  offset="0" style="stop-color:#FD4755"/>
		<stop  offset="1" style="stop-color:#A72B2B"/>
	</linearGradient>
	<circle style="fill:url(#SVGID_00000135676826783167932690000012183148889874750090_);" cx="45.5" cy="28.8" r="17.4"/>
	
		<linearGradient id="SVGID_00000163785283642171874830000008286207252915847851_" gradientUnits="userSpaceOnUse" x1="88.9894" y1="500.9371" x2="98.0665" y2="471.2851" gradientTransform="matrix(1.0039 0 0 -1.0039 1.3699 519.7814)">
		<stop  offset="0" style="stop-color:#FEE45A"/>
		<stop  offset="1" style="stop-color:#FEA613"/>
	</linearGradient>
	<circle style="fill:url(#SVGID_00000163785283642171874830000008286207252915847851_);" cx="94.4" cy="28.8" r="17.4"/>
	
		<linearGradient id="SVGID_00000078743972918609986690000010639102999477869499_" gradientUnits="userSpaceOnUse" x1="137.6554" y1="500.9371" x2="146.7325" y2="471.2851" gradientTransform="matrix(1.0039 0 0 -1.0039 1.3699 519.7814)">
		<stop  offset="0" style="stop-color:#BBEC6C"/>
		<stop  offset="1" style="stop-color:#81B823"/>
	</linearGradient>
	<circle style="fill:url(#SVGID_00000078743972918609986690000010639102999477869499_);" cx="143.2" cy="28.8" r="17.4"/>
	
		<linearGradient id="SVGID_00000065768971950702617040000000467150974729939869_" gradientUnits="userSpaceOnUse" x1="210.2964" y1="216.044" x2="210.2964" y2="121.441" gradientTransform="matrix(1.0039 0 0 -1.0039 1.3699 519.7814)">
		<stop  offset="0" style="stop-color:#7BACDF;stop-opacity:0"/>
		<stop  offset="1" style="stop-color:#7BACDF"/>
	</linearGradient>
	<path style="fill:url(#SVGID_00000065768971950702617040000000467150974729939869_);" d="M0,230.5v111c0,15.4,12.5,27.9,27.9,27.9
		H397c15.4,0,27.9-12.5,27.9-27.9v-111L0,230.5z"/>
</g>
</svg>
