<svg id="Capa_1" enable-background="new 0 0 510 510" height="512" viewBox="0 0 510 510" width="512" xmlns="http://www.w3.org/2000/svg" xmlns:xlink="http://www.w3.org/1999/xlink"><linearGradient id="lg1"><stop offset="0" stop-color="#fff5d9"/><stop offset="1" stop-color="#ffce47"/></linearGradient><linearGradient id="SVGID_1_" gradientUnits="userSpaceOnUse" x1="228.956" x2="388.026" xlink:href="#lg1" y1="5.345" y2="164.415"/><linearGradient id="lg2"><stop offset="0" stop-color="#6fa953"/><stop offset="1" stop-color="#43765a"/></linearGradient><linearGradient id="SVGID_2_" gradientUnits="userSpaceOnUse" x1="45.058" x2="116.259" xlink:href="#lg2" y1="165.361" y2="236.562"/><linearGradient id="lg3"><stop offset="0" stop-color="#e4e08e"/><stop offset="1" stop-color="#6fa953"/></linearGradient><linearGradient id="SVGID_3_" gradientUnits="userSpaceOnUse" x1="161.177" x2="254.747" xlink:href="#lg3" y1="40.873" y2="134.444"/><linearGradient id="lg4"><stop offset="0" stop-color="#ffce47"/><stop offset="1" stop-color="#ff9356"/></linearGradient><linearGradient id="SVGID_4_" gradientUnits="userSpaceOnUse" x1="331.832" x2="483.7" xlink:href="#lg4" y1="108.221" y2="260.09"/><linearGradient id="lg5"><stop offset="0" stop-color="#ff9356"/><stop offset="1" stop-color="#ff755c"/></linearGradient><linearGradient id="SVGID_5_" gradientUnits="userSpaceOnUse" x1="365.57" x2="453.611" xlink:href="#lg5" y1="245.266" y2="333.308"/><linearGradient id="lg6"><stop offset="0" stop-color="#7acbff"/><stop offset="1" stop-color="#45a2e0"/></linearGradient><linearGradient id="SVGID_6_" gradientUnits="userSpaceOnUse" x1="32.372" x2="135.969" xlink:href="#lg6" y1="255.983" y2="359.58"/><linearGradient id="lg7"><stop offset="0" stop-color="#ff755c"/><stop offset="1" stop-color="#ff4181"/></linearGradient><linearGradient id="SVGID_7_" gradientUnits="userSpaceOnUse" x1="254.831" x2="341.741" xlink:href="#lg7" y1="375.135" y2="462.044"/><linearGradient id="lg8"><stop offset="0" stop-color="#ff4181"/><stop offset="1" stop-color="#843561"/></linearGradient><linearGradient id="SVGID_8_" gradientUnits="userSpaceOnUse" x1="106.478" x2="316.633" xlink:href="#lg8" y1="330.088" y2="540.244"/><linearGradient id="SVGID_9_" gradientUnits="userSpaceOnUse" x1="351.073" x2="253.172" xlink:href="#lg1" y1="168.534" y2="70.633"/><linearGradient id="SVGID_10_" gradientUnits="userSpaceOnUse" x1="157.639" x2="36.299" xlink:href="#lg2" y1="248.897" y2="127.557"/><linearGradient id="SVGID_11_" gradientUnits="userSpaceOnUse" x1="242.503" x2="134.517" xlink:href="#lg3" y1="151.245" y2="43.259"/><linearGradient id="SVGID_12_" gradientUnits="userSpaceOnUse" x1="436.365" x2="322.367" xlink:href="#lg4" y1="253.826" y2="139.828"/><linearGradient id="SVGID_13_" gradientUnits="userSpaceOnUse" x1="428.506" x2="352.346" xlink:href="#lg5" y1="337.248" y2="261.088"/><linearGradient id="SVGID_14_" gradientUnits="userSpaceOnUse" x1="187.562" x2="46.948" xlink:href="#lg6" y1="370.101" y2="229.487"/><linearGradient id="SVGID_15_" gradientUnits="userSpaceOnUse" x1="341.317" x2="238.827" xlink:href="#lg7" y1="432.575" y2="330.085"/><linearGradient id="SVGID_16_" gradientUnits="userSpaceOnUse" x1="257.313" x2="132.233" xlink:href="#lg8" y1="439.852" y2="314.772"/><linearGradient id="SVGID_17_" gradientUnits="userSpaceOnUse" x1="358.303" x2="285.612" y1="358.303" y2="285.612"><stop offset="0" stop-color="#843561" stop-opacity="0"/><stop offset="1" stop-color="#3a2f4d"/></linearGradient><linearGradient id="SVGID_18_" gradientTransform="matrix(.707 .707 -.707 .707 921.447 -721.458)" gradientUnits="userSpaceOnUse" x1="145.995" x2="292.43" y1="1431.997" y2="1431.997"><stop offset="0" stop-color="#ffe0ea"/><stop offset="1" stop-color="#ffc0d5"/></linearGradient><linearGradient id="SVGID_19_" gradientUnits="userSpaceOnUse" x1="51.915" x2="334.839" xlink:href="#lg4" y1="316.624" y2="316.624"/><linearGradient id="SVGID_20_" gradientUnits="userSpaceOnUse" x1="232.818" x2="128.289" xlink:href="#lg4" y1="363.109" y2="258.58"/><linearGradient id="lg9"><stop offset="0" stop-color="#2f73a0"/><stop offset="1" stop-color="#174461"/></linearGradient><linearGradient id="SVGID_21_" gradientTransform="matrix(.707 .707 -.707 .707 921.447 -721.458)" gradientUnits="userSpaceOnUse" x1="214.792" x2="252.156" xlink:href="#lg9" y1="1499.633" y2="1499.633"/><linearGradient id="lg10"><stop offset="0" stop-color="#edf5ff"/><stop offset="1" stop-color="#c7e9ff"/></linearGradient><linearGradient id="SVGID_22_" gradientTransform="matrix(.707 .707 -.707 .707 737.503 -346.489)" gradientUnits="userSpaceOnUse" x1="46.988" x2="72.469" xlink:href="#lg10" y1="569.7" y2="575.898"/><linearGradient id="SVGID_23_" gradientTransform="matrix(.707 .707 -.707 .707 737.503 -346.489)" gradientUnits="userSpaceOnUse" x1="101.952" x2="138.451" xlink:href="#lg10" y1="575.692" y2="586.022"/><linearGradient id="SVGID_24_" gradientTransform="matrix(.707 .707 -.707 .707 737.503 -346.489)" gradientUnits="userSpaceOnUse" x1="111.013" x2="66.075" xlink:href="#lg9" y1="535.308" y2="535.308"/><linearGradient id="SVGID_25_" gradientTransform="matrix(.707 .707 -.707 .707 737.503 -346.489)" gradientUnits="userSpaceOnUse" x1="84.136" x2="84.136" y1="678.695" y2="703.245"><stop offset="0" stop-color="#7acbff" stop-opacity="0"/><stop offset="1" stop-color="#2f73a0"/></linearGradient><linearGradient id="SVGID_26_" gradientTransform="matrix(.707 .707 -.707 .707 737.503 -346.489)" gradientUnits="userSpaceOnUse" x1="79.049" x2="90.631" xlink:href="#lg9" y1="719.619" y2="769.419"/><g><g><g><g><path d="m425.135 84.865-94.513 94.513c-19.356-19.356-46.094-31.33-75.622-31.33v-133.655c66.438 0 126.598 26.924 170.135 70.472z" fill="url(#SVGID_1_)"/><path d="m179.378 179.378c-19.356 19.356-31.33 46.094-31.33 75.622h-133.655c0-66.438 26.924-126.598 70.472-170.135z" fill="url(#SVGID_2_)"/><path d="m255 14.393v133.655c-29.528 0-56.266 11.974-75.622 31.33l-94.513-94.513c43.537-43.548 103.697-70.472 170.135-70.472z" fill="url(#SVGID_3_)"/><path d="m495.607 255h-133.655c0-29.528-11.974-56.266-31.33-75.622l94.513-94.513c43.548 43.537 70.472 103.697 70.472 170.135z" fill="url(#SVGID_4_)"/><path d="m495.607 255c0 66.438-26.924 126.598-70.472 170.135l-94.513-94.513c19.356-19.356 31.33-46.094 31.33-75.622z" fill="url(#SVGID_5_)"/><path d="m179.378 330.622-94.513 94.513c-43.548-43.537-70.472-103.697-70.472-170.135h133.655c0 29.528 11.974 56.266 31.33 75.622z" fill="url(#SVGID_6_)"/><path d="m425.135 425.135c-43.537 43.548-103.697 70.472-170.135 70.472v-133.655c29.528 0 56.266-11.974 75.622-31.33z" fill="url(#SVGID_7_)"/><path d="m255 361.952v133.655c-66.438 0-126.598-26.924-170.135-70.472l94.513-94.513c19.356 19.356 46.094 31.33 75.622 31.33z" fill="url(#SVGID_8_)"/></g><g><path d="m384.063 125.937-53.441 53.441c-19.356-19.356-46.094-31.33-75.622-31.33v-75.564c50.407 0 96.024 20.426 129.063 53.453z" fill="url(#SVGID_9_)"/><path d="m179.378 179.378c-19.356 19.356-31.33 46.094-31.33 75.622h-75.564c0-50.407 20.425-96.024 53.453-129.063z" fill="url(#SVGID_10_)"/><path d="m255 72.484v75.564c-29.528 0-56.266 11.974-75.622 31.33l-53.441-53.441c33.039-33.027 78.656-53.453 129.063-53.453z" fill="url(#SVGID_11_)"/><path d="m437.516 255h-75.564c0-29.528-11.974-56.266-31.33-75.622l53.441-53.441c33.027 33.039 53.453 78.656 53.453 129.063z" fill="url(#SVGID_12_)"/><path d="m437.516 255c0 50.407-20.426 96.024-53.453 129.063l-53.441-53.441c19.356-19.356 31.33-46.094 31.33-75.622z" fill="url(#SVGID_13_)"/><path d="m179.378 330.622-53.441 53.441c-33.027-33.039-53.453-78.656-53.453-129.063h75.564c0 29.528 11.974 56.266 31.33 75.622z" fill="url(#SVGID_14_)"/><path d="m384.063 384.063c-33.039 33.027-78.656 53.453-129.063 53.453v-75.564c29.528 0 56.266-11.974 75.622-31.33z" fill="url(#SVGID_15_)"/><path d="m255 361.952v75.564c-50.407 0-96.024-20.426-129.063-53.453l53.441-53.441c19.356 19.356 46.094 31.33 75.622 31.33z" fill="url(#SVGID_16_)"/></g></g><path d="m452.919 118.166-98.176 98.176c4.652 11.991 7.209 25.025 7.209 38.657 0 29.528-11.974 56.266-31.33 75.622s-46.094 31.33-75.622 31.33c-13.632 0-26.667-2.557-38.657-7.209l-98.176 98.176c38.85 26.911 85.999 42.688 136.834 42.688 66.438 0 126.598-26.924 170.135-70.472 43.548-43.536 70.472-103.697 70.472-170.135-.001-50.834-15.778-97.983-42.689-136.833z" fill="url(#SVGID_17_)"/></g><g><g><g><path d="m51.914 354.541-51.386 143.745c-2.486 6.955 4.23 13.672 11.185 11.186l143.745-51.386c28.679-28.679-74.866-132.223-103.544-103.545z" fill="url(#SVGID_18_)"/><path d="m328.986 284.574-173.53 173.512c-2.835-4.913-7.143-9.26-12.662-12.34-7.54-4.176-19.332-1.89-27.496.586-1.777.529-3.402-.397-4.063-1.814-.416-.85-.491-1.89-.038-2.91.019 0 .019-.019.019-.019.454-1.039.851-2.098 1.191-3.156.151-.51.302-1.02.454-1.531.019-.038.019-.057.019-.094.435-1.644.737-3.288.907-4.97.057-.548.095-1.115.132-1.663.047-.913.056-1.826.026-2.739-.207-6.389-2.294-12.734-6.263-18.124-.964-1.323-2.041-2.57-3.231-3.761-1.191-1.191-2.438-2.268-3.761-3.232-6.161-4.535-13.569-6.614-20.863-6.236-.548.038-1.115.076-1.663.132-1.682.17-3.345.472-4.97.907-.038 0-.057 0-.095.019-.51.151-1.021.302-1.531.454-.548.17-1.077.359-1.606.567-.51.189-1.021.397-1.531.624-.019 0-.019 0-.038.019-1.021.454-2.06.378-2.91-.038-1.417-.661-2.343-2.287-1.814-4.063 2.476-8.164 4.762-19.937.586-27.477-3.081-5.537-7.408-9.846-12.34-12.68l173.512-173.53c7.823-7.805 20.485-7.805 28.29 0l14.759 14.759 45.751 45.751 14.759 14.759c7.804 7.803 7.804 20.464 0 28.288z" fill="url(#SVGID_19_)"/><path d="m314.227 241.525-202.992 202.992c-.416-.85-.491-1.89-.038-2.91.019 0 .019-.019.019-.019.454-1.039 2.419-8.088 2.57-9.751.076-.567.113-1.115.132-1.663.378-7.294-1.701-14.702-6.236-20.863-.964-1.323-2.041-2.57-3.231-3.761-1.191-1.191-2.438-2.268-3.761-3.232-6.161-4.535-13.569-6.614-20.863-6.236-.548.019-1.096.057-1.663.132-1.663.151-3.326.454-4.97.907-.038 0-.057 0-.095.019-.51.132-4.157 1.417-4.668 1.644-.019 0-.019 0-.038.019-1.021.454-2.06.378-2.91-.038l202.992-202.992z" fill="url(#SVGID_20_)"/><path d="m29.544 480.456c-5.44-5.44-11.52-9.805-17.951-13.121l-11.064 30.951c-2.486 6.955 4.23 13.672 11.185 11.185l30.951-11.064c-3.316-6.432-7.681-12.512-13.121-17.951z" fill="url(#SVGID_21_)"/></g></g><g><g><g><path d="m493.814 16.187-209.535 209.535-30.651-30.651c-6.681-6.681-6.681-17.514 0-24.195l18.332-18.332c7.913-7.913 12.358-18.645 12.358-29.835v-22.845c0-17.973 11.385-33.973 28.366-39.863l171.345-59.434c9.486-3.291 16.884 8.52 9.785 15.62z" fill="url(#SVGID_22_)"/><path d="m493.814 16.187-209.535 209.535 30.651 30.651c6.681 6.681 17.514 6.681 24.195 0l18.332-18.332c7.913-7.913 18.645-12.358 29.835-12.358h22.844c17.973 0 33.973-11.385 39.863-28.366l59.434-171.346c3.291-9.485-8.52-16.884-15.619-9.784z" fill="url(#SVGID_23_)"/></g><path d="m395.093 124.746 105.248-105.248c2.62-2.62 2.931-6.885.485-9.669-2.68-3.051-7.33-3.163-10.156-.338l-105.17 105.171c-6.886 6.886-16.428 10.656-26.129 9.799-8.973-.792-18.245 2.605-24.642 10.195-9.065 10.755-8.921 26.797.316 37.405 11.09 12.736 30.43 13.235 42.167 1.498 6.147-6.147 8.935-14.378 8.369-22.417-.692-9.795 2.569-19.453 9.512-26.396z" fill="url(#SVGID_24_)"/><path d="m282.54 134.813c-1.988 6.635-5.594 12.743-10.58 17.73l-18.332 18.332c-6.681 6.681-6.681 17.514 0 24.195l30.651 30.651 30.651 30.651c6.681 6.681 17.514 6.681 24.195 0l18.332-18.332c4.987-4.987 11.095-8.593 17.73-10.58z" fill="url(#SVGID_25_)"/></g><path d="m303.325 310.235-103.559-103.56 41.271-41.271c4.78-4.78 12.529-4.78 17.308 0l86.251 86.251c4.78 4.78 4.78 12.529 0 17.308z" fill="url(#SVGID_26_)"/></g></g></g></svg>